<?xml version="1.0" standalone="no"?>
<!DOCTYPE svg PUBLIC "-//W3C//DTD SVG 20010904//EN"
 "http://www.w3.org/TR/2001/REC-SVG-20010904/DTD/svg10.dtd">
<svg version="1.0" xmlns="http://www.w3.org/2000/svg"
 width="300.000000pt" height="299.000000pt" viewBox="0 0 300.000000 299.000000"
 preserveAspectRatio="xMidYMid meet">
<metadata>
Created by potrace 1.10, written by Peter Selinger 2001-2011
</metadata>
<g transform="translate(0.000000,299.000000) scale(0.100000,-0.100000)"
fill="#000000" stroke="none">
<path d="M1300 2984 c-136 -17 -477 -131 -488 -163 -2 -7 28 4 67 24 39 20 83
37 98 38 16 1 30 5 33 8 10 13 169 58 256 73 201 36 520 8 677 -59 9 -4 17 -3
17 3 0 8 -15 15 -65 28 -172 44 -183 46 -370 49 -104 2 -206 1 -225 -1z"/>
<path d="M2110 2841 c52 -26 97 -47 99 -45 8 7 -12 24 -29 24 -10 0 -20 4 -22
8 -3 8 -123 62 -136 62 -4 0 36 -22 88 -49z"/>
<path d="M2220 2790 c0 -6 8 -13 18 -17 23 -9 106 -65 110 -75 5 -10 22 -11
22 0 0 4 -16 16 -35 26 -19 11 -35 23 -35 28 0 4 -5 8 -11 8 -6 0 -24 9 -40
21 -16 11 -29 15 -29 9z"/>
<path d="M511 2619 c-13 -11 -21 -23 -17 -26 4 -4 19 5 34 20 31 31 19 36 -17
6z"/>
<path d="M2482 2598 c2 -6 20 -23 39 -37 l34 -25 -34 37 c-37 39 -45 45 -39
25z"/>
<path d="M890 1550 c0 -273 3 -420 10 -420 7 0 10 147 10 420 0 273 -3 420
-10 420 -7 0 -10 -147 -10 -420z"/>
<path d="M2095 1510 c0 -201 1 -283 2 -183 2 101 2 265 0 365 -1 101 -2 19 -2
-182z"/>
<path d="M1835 1495 c0 -203 1 -285 2 -182 2 104 2 270 0 370 -1 100 -2 16 -2
-188z"/>
<path d="M1900 1050 c0 -6 30 -10 70 -10 40 0 70 4 70 10 0 6 -30 10 -70 10
-40 0 -70 -4 -70 -10z"/>
</g>
</svg>
