<svg xmlns="http://www.w3.org/2000/svg" version="1.0" viewBox="0 0 1024 346"><path fill-opacity=".1" d="M198.8 13.7c.7.3 1.6.2 1.9-.1.4-.3-.2-.6-1.3-.5-1.1 0-1.4.3-.6.6m30 0c.6.2 1.8.2 2.5 0 .6-.3.1-.5-1.3-.5s-1.9.2-1.2.5m216.5 71c3.7.2 9.6.2 13 0s.4-.3-6.8-.3c-7.1 0-9.9.1-6.2.3m22.8 12.9c0 1.1.3 1.4.6.6.3-.7.2-1.6-.1-1.9-.3-.4-.6.2-.5 1.3m391.2 34.1c.9.2 2.3.2 3 0 .6-.3-.1-.5-1.8-.5-1.6 0-2.2.2-1.2.5m-91.5 1c.7.3 1.6.2 1.9-.1.4-.3-.2-.6-1.3-.5-1.1 0-1.4.3-.6.6m16 0c.7.3 1.6.2 1.9-.1.4-.3-.2-.6-1.3-.5-1.1 0-1.4.3-.6.6m67 0c.7.3 1.6.2 1.9-.1.4-.3-.2-.6-1.3-.5-1.1 0-1.4.3-.6.6m19 0c.7.3 1.6.2 1.9-.1.4-.3-.2-.6-1.3-.5-1.1 0-1.4.3-.6.6m-301 3c2.3.2 6.1.2 8.5 0 2.3-.2.4-.4-4.3-.4s-6.6.2-4.2.4m89.5 0c3.7.2 9.6.2 13 0s.4-.3-6.8-.3c-7.1 0-9.9.1-6.2.3m55.5 0c3.4.2 9 .2 12.5 0 3.4-.2.6-.3-6.3-.3s-9.7.1-6.2.3m232.4 0c3.7.2 10 .2 14 0 4-.1 1-.3-6.7-.3s-11 .1-7.3.3m-692.9 22.8c0 2.2.2 3 .4 1.7.2-1.2.2-3 0-4-.3-.9-.5.1-.4 2.3m231 72.2c8.6.2 22.8.2 31.5 0 8.6-.1 1.5-.3-15.8-.3s-24.4.2-15.7.3"/><path fill-opacity=".2" d="M202.3 13.7c.9.2 2.3.2 3 0 .6-.3-.1-.5-1.8-.5-1.6 0-2.2.2-1.2.5m22.5 0c.6.2 1.8.2 2.5 0 .6-.3.1-.5-1.3-.5s-1.9.2-1.2.5m-32 1c.7.3 1.6.2 1.9-.1.4-.3-.2-.6-1.3-.5-1.1 0-1.4.3-.6.6M327.5 59c1 1.1 2 2 2.3 2s-.3-.9-1.3-2-2-2-2.3-2 .3.9 1.3 2M898 146.4c0 .2.8 1 1.8 1.7 1.5 1.3 1.6 1.2.3-.4s-2.1-2.1-2.1-1.3m-738.2 86.3c.7.3 1.6.2 1.9-.1.4-.3-.2-.6-1.3-.5-1.1 0-1.4.3-.6.6"/><path fill-opacity=".5" d="M209.8 13.7c.7.3 1.6.2 1.9-.1.4-.3-.2-.6-1.3-.5-1.1 0-1.4.3-.6.6M933.3 149c0 3.6.2 5 .4 3.2.2-1.7.2-4.7 0-6.5-.2-1.7-.4-.3-.4 3.3m-377 29c0 3.6.2 5 .4 3.2.2-1.7.2-4.7 0-6.5-.2-1.7-.4-.3-.4 3.3m0 26c0 3.6.2 5 .4 3.2.2-1.7.2-4.7 0-6.5-.2-1.7-.4-.3-.4 3.3"/><path fill-opacity=".6" d="M213.8 13.7c1.2.2 3 .2 4 0 .9-.3-.1-.5-2.3-.4-2.2 0-3 .2-1.7.4m719.4 126.8c0 1.6.2 2.2.5 1.2.2-.9.2-2.3 0-3-.3-.6-.5.1-.5 1.8m-376.8 15c0 9.3.2 13.3.3 8.8.2-4.5.2-12.2 0-17-.1-4.8-.3-1.2-.3 8.2m-.1 33.5c0 3 .2 4.3.4 2.7.2-1.5.2-3.9 0-5.5-.2-1.5-.4-.2-.4 2.8m-274.9 10c0 6.9.1 9.7.3 6.2.2-3.4.2-9 0-12.5-.2-3.4-.3-.6-.3 6.3m274.7-2.4c0 1.1.3 1.4.6.6.3-.7.2-1.6-.1-1.9-.3-.4-.6.2-.5 1.3"/><path fill="#FFF" fill-opacity=".7" d="m102.4 60.2-2.9 3.3 3.3-2.9c3-2.8 3.7-3.6 2.9-3.6-.2 0-1.6 1.5-3.3 3.2M331.5 64c1 1.1 2 2 2.3 2s-.3-.9-1.3-2-2-2-2.3-2 .3.9 1.3 2M227 88.4c0 .2.8 1 1.8 1.7 1.5 1.3 1.6 1.2.3-.4s-2.1-2.1-2.1-1.3m707.9 2.3c-1.3 1.6-1.2 1.7.4.4.9-.7 1.7-1.5 1.7-1.7 0-.8-.8-.3-2.1 1.3m32 25c-1.3 1.6-1.2 1.7.4.4s2.1-2.1 1.3-2.1c-.2 0-1 .8-1.7 1.7m-702.1 13c1.2.2 3 .2 4 0 .9-.3-.1-.5-2.3-.4-2.2 0-3 .2-1.7.4m559.1 17c-1.3 1.6-1.2 1.7.4.4s2.1-2.1 1.3-2.1c-.2 0-1 .8-1.7 1.7m-13.9-.3c0 .2.8 1 1.8 1.7 1.5 1.3 1.6 1.2.3-.4s-2.1-2.1-2.1-1.3m-46.7 18.3c1.5.2 3.7.2 5 0 1.2-.2 0-.4-2.8-.4-2.7 0-3.8.2-2.2.4m86 0c1.5.2 3.7.2 5 0 1.2-.2 0-.4-2.8-.4-2.7 0-3.8.2-2.2.4m-65.3 6.8c1.3 1.4 2.6 2.5 2.8 2.5.3 0-.5-1.1-1.8-2.5s-2.6-2.5-2.8-2.5c-.3 0 .5 1.1 1.8 2.5m85.5-.5c1 1.1 2 2 2.3 2s-.3-.9-1.3-2-2-2-2.3-2 .3.9 1.3 2M566 250.3c0 .2 1.5 1.6 3.3 3.3l3.2 2.9-2.9-3.3c-2.8-3-3.6-3.7-3.6-2.9m-338.1 4.4c-1.3 1.6-1.2 1.7.4.4s2.1-2.1 1.3-2.1c-.2 0-1 .8-1.7 1.7m104.6 29.5-4 4.3 4.3-4c2.3-2.1 4.2-4 4.2-4.2 0-.8-.9 0-4.5 3.9M99 285.3c0 .2 1.5 1.6 3.3 3.3l3.2 2.9-2.9-3.3c-2.8-3-3.6-3.7-3.6-2.9m224.9 7.4-2.4 2.8 2.8-2.4c1.5-1.4 2.7-2.6 2.7-2.8 0-.8-.8-.1-3.1 2.4"/><g fill="#FFF" fill-opacity=".8" stroke-opacity=".8" stroke-width="0"><path d="M317 50.4c0 .2.8 1 1.8 1.7 1.5 1.3 1.6 1.2.3-.4s-2.1-2.1-2.1-1.3m-206.6 2.8-1.9 2.3 2.3-1.9c2.1-1.8 2.7-2.6 1.9-2.6-.2 0-1.2 1-2.3 2.2M327 59.5c1.3 1.4 2.6 2.5 2.8 2.5.3 0-.5-1.1-1.8-2.5s-2.6-2.5-2.8-2.5c-.3 0 .5 1.1 1.8 2.5M93.9 69.7c-1.3 1.6-1.2 1.7.4.4.9-.7 1.7-1.5 1.7-1.7 0-.8-.8-.3-2.1 1.3m339.6 105.5v89.3H489c52.3 0 55.5-.1 55.6-1.8.1-1.2.1-1.3-.3-.2-.4 1.3-7.1 1.5-55.4 1.5H434l-.3-89-.2-89zM467.2 88c0 1.4.2 1.9.5 1.2.2-.6.2-1.8 0-2.5-.3-.6-.5-.1-.5 1.3m-236.7 83.5c0 44.5.1 62.9.2 40.8.2-22.1.2-58.5 0-81-.1-22.4-.2-4.4-.2 40.2M200.4 114c0 11.8.2 16.7.3 10.7.2-5.9.2-15.5 0-21.5-.1-5.9-.3-1-.3 10.8m729.7-13.4c0 1.1.3 1.4.6.6.3-.7.2-1.6-.1-1.9-.3-.4-.6.2-.5 1.3m41.1.4c0 1.4.2 1.9.5 1.2.2-.6.2-1.8 0-2.5-.3-.6-.5-.1-.5 1.3m-41.1 5.6c0 1.1.3 1.4.6.6.3-.7.2-1.6-.1-1.9-.3-.4-.6.2-.5 1.3m41 0c0 1.1.3 1.4.6.6.3-.7.2-1.6-.1-1.9-.3-.4-.6.2-.5 1.3m-810.8 8.1c2.6.2 6.8.2 9.5 0 2.6-.2.4-.3-4.8-.3s-7.4.1-4.7.3m19.2 58.8c0 30.2.1 42.8.2 27.8.2-14.9.2-39.7 0-55-.1-15.3-.2-3.1-.2 27.2m-29 0c0 29.7.1 41.7.2 26.7.2-15 .2-39.3 0-54-.1-14.7-.2-2.4-.2 27.3m108.8-44.8c.9.2 2.3.2 3 0 .6-.3-.1-.5-1.8-.5-1.6 0-2.2.2-1.2.5m12.5 0c1.2.2 3 .2 4 0 .9-.3-.1-.5-2.3-.4-2.2 0-3 .2-1.7.4m589 4c.7.3 1.6.2 1.9-.1.4-.3-.2-.6-1.3-.5-1.1 0-1.4.3-.6.6m-608.6 5.8c0 1.6.2 2.2.5 1.2.2-.9.2-2.3 0-3-.3-.6-.5.1-.5 1.8m451.2-1.1c-.3.8-.4 2.9-.1 4.8.3 3 .4 2.9.5-1l.2-4.2h32.9l.4 5 .4 5-.1-5.2-.1-5.3-16.8-.3c-13.8-.2-16.8 0-17.3 1.2m232.9-.7c1.5.2 3.7.2 5 0 1.2-.2 0-.4-2.8-.4-2.7 0-3.8.2-2.2.4m26 0c.9.2 2.3.2 3 0 .6-.3-.1-.5-1.8-.5-1.6 0-2.2.2-1.2.5m-372 5.8c0 3.3.2 4.5.4 2.7s.2-4.5 0-6-.4 0-.4 3.3m57-1.5c0 2.5.2 3.5.4 2.2.2-1.2.2-3.2 0-4.5-.2-1.2-.4-.2-.4 2.3m34.2 59.5c0 35.2.1 49.5.2 31.7.2-17.8.2-46.6 0-64-.1-17.4-.2-2.9-.2 32.3M967.2 139c0 1.4.2 1.9.5 1.2.2-.6.2-1.8 0-2.5-.3-.6-.5-.1-.5 1.3m-856.5.7c1.8.2 5 .2 7 0 2.1-.2.7-.4-3.2-.4-3.8 0-5.5.2-3.8.4m786.3 6.8c1.9 1.9 3.6 3.5 3.9 3.5s-1-1.6-2.9-3.5-3.6-3.5-3.9-3.5 1 1.6 2.9 3.5m-156.6.7-1.9 2.3 2.3-1.9c1.2-1.1 2.2-2.1 2.2-2.3 0-.8-.8-.2-2.6 1.9m-641 26.3c0 15.4.2 21.6.3 13.7.2-7.9.2-20.5 0-28-.1-7.5-.3-1.1-.3 14.3m30 .5c0 15.7.2 22.1.3 14.2.2-7.8.2-20.6 0-28.5-.1-7.8-.3-1.4-.3 14.3m71.1 24.5c0 29.1.1 40.9.2 26.2.2-14.8.2-38.6 0-53-.1-14.4-.2-2.4-.2 26.8m172.6-49.9c0 1.1.3 1.4.6.6.3-.7.2-1.6-.1-1.9-.3-.4-.6.2-.5 1.3m447.3.6-1.9 2.3 2.3-1.9c1.2-1.1 2.2-2.1 2.2-2.3 0-.8-.8-.2-2.6 1.9m-507.1-.5c2.6.2 6.7.2 9 0s.2-.3-4.8-.3c-4.9 0-6.8.1-4.2.3m-256.2 3.9c0 1.1.3 1.4.6.6.3-.7.2-1.6-.1-1.9-.3-.4-.6.2-.5 1.3m317.1 2.4c0 1.4.2 1.9.5 1.2.2-.6.2-1.8 0-2.5-.3-.6-.5-.1-.5 1.3m-41.8 21c0 12.4.2 17.4.3 11.2.2-6.1.2-16.3 0-22.5-.1-6.1-.3-1.1-.3 11.3m258 9.5c0 17.6.2 24.7.3 15.7.2-9 .2-23.4 0-32-.1-8.6-.3-1.3-.3 16.3m-288-9.5c0 11.8.2 16.7.3 10.7.2-5.9.2-15.5 0-21.5-.1-5.9-.3-1-.3 10.8M56.3 165.5c0 2.7.2 3.8.4 2.2.2-1.5.2-3.7 0-5-.2-1.2-.4 0-.4 2.8m319.1 9.5c0 6.9.1 9.7.3 6.2.2-3.4.2-9 0-12.5-.2-3.4-.3-.6-.3 6.3m383.4-11.3c.7.3 1.6.2 1.9-.1.4-.3-.2-.6-1.3-.5-1.1 0-1.4.3-.6.6m-55.3 45.8c0 23.1.1 32.4.2 20.7.2-11.7.2-30.6 0-42-.1-11.4-.2-1.8-.2 21.3m39.9-38.3-1.9 2.3 2.3-1.9c2.1-1.8 2.7-2.6 1.9-2.6-.2 0-1.2 1-2.3 2.2m165.8.8c0 1.4.2 1.9.5 1.2.2-.6.2-1.8 0-2.5-.3-.6-.5-.1-.5 1.3m-261.8 23.5c0 8.8.2 12.3.3 7.7.2-4.6.2-11.8 0-16-.1-4.2-.3-.5-.3 8.3m-591.1-10c0 2.2.2 3 .4 1.7.2-1.2.2-3 0-4-.3-.9-.5.1-.4 2.3m819.8-1.9c0 1.1.3 1.4.6.6.3-.7.2-1.6-.1-1.9-.3-.4-.6.2-.5 1.3m91.1 2.4c0 1.9.2 2.7.5 1.7.2-.9.2-2.5 0-3.5-.3-.9-.5-.1-.5 1.8m-230 37.7L737 264h-32.9l-.4-5-.4-5 .1 5.2.1 5.3 16.8.3c12.9.2 16.9 0 17.2-1 .3-.7.4-19.1.2-40.8l-.2-39.5zm-363-28.7c0 1.4.2 1.9.5 1.2.2-.6.2-1.8 0-2.5-.3-.6-.5-.1-.5 1.3m-317.1 1.6c0 1.1.3 1.4.6.6.3-.7.2-1.6-.1-1.9-.3-.4-.6.2-.5 1.3m42.9 6.8c0 .2.8 1 1.8 1.7 1.5 1.3 1.6 1.2.3-.4s-2.1-2.1-2.1-1.3m213.3.3c2.6.2 6.7.2 9 0s.2-.3-4.8-.3c-4.9 0-6.8.1-4.2.3m-61.2 11.9c0 1.1.3 1.4.6.6.3-.7.2-1.6-.1-1.9-.3-.4-.6.2-.5 1.3"/><path d="M467.3 226c0 2.5.2 3.5.4 2.2.2-1.2.2-3.2 0-4.5-.2-1.2-.4-.2-.4 2.3m89.9 3c0 1.4.2 1.9.5 1.2.2-.6.2-1.8 0-2.5-.3-.6-.5-.1-.5 1.3m39.3 1c1 1.1 2 2 2.3 2s-.3-.9-1.3-2-2-2-2.3-2 .3.9 1.3 2m-445.5-.6c0 .2.8 1 1.8 1.7 1.5 1.3 1.6 1.2.3-.4s-2.1-2.1-2.1-1.3m393.2 5.6c0 1.9.2 2.7.5 1.7.2-.9.2-2.5 0-3.5-.3-.9-.5-.1-.5 1.8m72.6 2.7c.7.3 1.6.2 1.9-.1.4-.3-.2-.6-1.3-.5-1.1 0-1.4.3-.6.6m26.1 16-3.4 3.8 3.8-3.4 3.7-3.5.1 3c.2 2.5.2 2.6.6.5.8-4.1-1.1-4.3-4.8-.4m-430.6 4c2 .2 5.4.2 7.5 0 2-.2.3-.4-3.8-.4s-5.8.2-3.7.4m611.9 3.8c0 1.6.2 2.2.5 1.2.2-.9.2-2.3 0-3-.3-.6-.5.1-.5 1.8m-177 .5c0 1.4.2 1.9.5 1.2.2-.6.2-1.8 0-2.5-.3-.6-.5-.1-.5 1.3m143 0c0 1.4.2 1.9.5 1.2.2-.6.2-1.8 0-2.5-.3-.6-.5-.1-.5 1.3m177 0c0 1.4.2 1.9.5 1.2.2-.6.2-1.8 0-2.5-.3-.6-.5-.1-.5 1.3m-362.4 5.7c1.2.2 3 .2 4 0 .9-.3-.1-.5-2.3-.4-2.2 0-3 .2-1.7.4M93 278.4c0 .2.8 1 1.8 1.7 1.5 1.3 1.6 1.2.3-.4s-2.1-2.1-2.1-1.3m148.8 54.3c.7.3 1.6.2 1.9-.1.4-.3-.2-.6-1.3-.5-1.1 0-1.4.3-.6.6m-47 1c.7.3 1.6.2 1.9-.1.4-.3-.2-.6-1.3-.5-1.1 0-1.4.3-.6.6m40 0c.7.3 1.6.2 1.9-.1.4-.3-.2-.6-1.3-.5-1.1 0-1.4.3-.6.6m-26.5 1c3.7.2 9.7.2 13.5 0 3.7-.2.6-.3-6.8-.3s-10.5.1-6.7.3"/></g><path fill="#FFF" fill-opacity=".9" d="M202.7 14.7c1.8.2 5 .2 7 0 2.1-.2.7-.4-3.2-.4-3.8 0-5.5.2-3.8.4m19.1 0c1.8.2 4.5.2 6 0s0-.4-3.3-.4-4.5.2-2.7.4m-28.5 1c.9.2 2.5.2 3.5 0 .9-.3.1-.5-1.8-.5s-2.7.2-1.7.5m41 0c.9.2 2.5.2 3.5 0 .9-.3.1-.5-1.8-.5s-2.7.2-1.7.5m-47.5 1c.7.3 1.6.2 1.9-.1.4-.3-.2-.6-1.3-.5-1.1 0-1.4.3-.6.6m-12 3c.7.3 1.6.2 1.9-.1.4-.3-.2-.6-1.3-.5-1.1 0-1.4.3-.6.6m80 0c.7.3 1.6.2 1.9-.1.4-.3-.2-.6-1.3-.5-1.1 0-1.4.3-.6.6M160 24c-.8.5-1 1-.5 1 .6 0 1.7-.5 2.5-1s1.1-1 .5-1c-.5 0-1.7.5-2.5 1m109 0c.8.5 2 1 2.5 1 .6 0 .3-.5-.5-1s-1.9-1-2.5-1c-.5 0-.3.5.5 1m-121 5c-.8.5-1 1-.5 1 .6 0 1.7-.5 2.5-1s1.1-1 .5-1c-.5 0-1.7.5-2.5 1m133 0c.8.5 2 1 2.5 1 .6 0 .3-.5-.5-1s-1.9-1-2.5-1c-.5 0-.3.5.5 1m-141 4c-.9.6-1 1-.3 1 .6 0 1.5-.5 1.8-1 .8-1.2.4-1.2-1.5 0m149.7.1c.7.7 1.5 1 1.8.7s-.2-.9-1.2-1.2c-1.4-.6-1.5-.5-.6.5m-157.3 4.5c-1.8 1.4-1.8 1.5.4.4 1.2-.6 2.2-1.3 2.2-1.5 0-.8-.5-.6-2.6 1.1m-18.5 13.1c-1.3 1.6-1.2 1.7.4.4.9-.7 1.7-1.5 1.7-1.7 0-.8-.8-.3-2.1 1.3M321.5 55c1 1.1 2 2 2.3 2s-.3-.9-1.3-2-2-2-2.3-2 .3.9 1.3 2M97.9 65.7l-2.4 2.8 2.8-2.4c2.5-2.3 3.2-3.1 2.4-3.1-.2 0-1.4 1.2-2.8 2.7m343.4 20c4.2.2 11.2.2 15.5 0 4.2-.1.7-.3-7.8-.3s-12 .2-7.7.3m-229.5 1c2.3.2 6.1.2 8.5 0 2.3-.2.4-.4-4.3-.4s-6.6.2-4.2.4m726.6 1.9c-1.8 1.4-1.8 1.4.6.3 3.1-1.4 3.6-1.9 2.4-1.9-.6 0-1.9.7-3 1.6m21.6-1.2c0 .2.7.7 1.6 1 .8.3 1.2.2.9-.4-.6-1-2.5-1.4-2.5-.6m5.5 3.6c1 1.1 2 2 2.3 2s-.3-.9-1.3-2-2-2-2.3-2 .3.9 1.3 2m-498 65c0 36.6.1 51.5.2 33.2.2-18.2.2-48.2 0-66.5-.1-18.2-.2-3.3-.2 33.3m462.6-52.4c0 1.1.3 1.4.6.6.3-.7.2-1.6-.1-1.9-.3-.4-.6.2-.5 1.3m22.7 18.1c.7.3 1.6.2 1.9-.1.4-.3-.2-.6-1.3-.5-1.1 0-1.4.3-.6.6m-183 12c1.2.2 3 .2 4 0 .9-.3-.1-.5-2.3-.4-2.2 0-3 .2-1.7.4m10.5 0c.9.2 2.3.2 3 0 .6-.3-.1-.5-1.8-.5-1.6 0-2.2.2-1.2.5m72.5 0c.6.2 1.8.2 2.5 0 .6-.3.1-.5-1.3-.5s-1.9.2-1.2.5m13.5 0c.9.2 2.3.2 3 0 .6-.3-.1-.5-1.8-.5-1.6 0-2.2.2-1.2.5m-666 6.8c0 3.3.2 4.5.4 2.7s.2-4.5 0-6-.4 0-.4 3.3m748.5-3.8c2.3.2 6.1.2 8.5 0 2.3-.2.4-.4-4.3-.4s-6.6.2-4.2.4M754 138c-.8.5-1 1-.5 1 .6 0 1.7-.5 2.5-1s1.1-1 .5-1c-.5 0-1.7.5-2.5 1m-648.2 1.7c.7.3 1.6.2 1.9-.1.4-.3-.2-.6-1.3-.5-1.1 0-1.4.3-.6.6m16 0c.7.3 1.6.2 1.9-.1.4-.3-.2-.6-1.3-.5-1.1 0-1.4.3-.6.6m130.7 37.8c0 20.3.1 28.5.2 18.2.2-10.4.2-27 0-37-.1-10-.2-1.6-.2 18.8M967.4 162c0 11.8.2 16.7.3 10.7.2-5.9.2-15.5 0-21.5-.1-5.9-.3-1-.3 10.8m-320-8.5c0 4.9.1 7.1.3 4.8s.2-6.4 0-9-.3-.8-.3 4.2m56 3c0 6.6.1 9.2.3 5.7.2-3.4.2-8.8 0-12-.2-3.1-.3-.3-.3 6.3m-113.3-6.9c0 1.1.3 1.4.6.6.3-.7.2-1.6-.1-1.9-.3-.4-.6.2-.5 1.3M57.2 156c0 1.4.2 1.9.5 1.2.2-.6.2-1.8 0-2.5-.3-.6-.5-.1-.5 1.3m317 3c0 1.4.2 1.9.5 1.2.2-.6.2-1.8 0-2.5-.3-.6-.5-.1-.5 1.3m273 9.5c0 1.6.2 2.2.5 1.2.2-.9.2-2.3 0-3-.3-.6-.5.1-.5 1.8m184.2 1.7-2.9 3.3 3.3-2.9c1.7-1.7 3.2-3.1 3.2-3.3 0-.8-.8-.1-3.6 2.9M56.3 176c0 3.6.2 5 .4 3.2.2-1.7.2-4.7 0-6.5-.2-1.7-.4-.3-.4 3.3m591 .5c0 2.2.2 3 .4 1.7.2-1.2.2-3 0-4-.3-.9-.5.1-.4 2.3m261.9-.5c0 1.4.2 1.9.5 1.2.2-.6.2-1.8 0-2.5-.3-.6-.5-.1-.5 1.3m-118.7 42c0 21.2.1 29.8.2 19.3.2-10.6.2-28 0-38.5-.1-10.6-.2-2-.2 19.2m34 3.5c0 20.9.1 29.6.2 19.3.2-10.3.2-27.4 0-38-.1-10.6-.2-2.2-.2 18.7m143 3c0 19.8.1 28 .2 18.3.2-9.7.2-25.9 0-36-.1-10.1-.2-2.1-.2 17.7m-593.4-32.9c0 1.1.3 1.4.6.6.3-.7.2-1.6-.1-1.9-.3-.4-.6.2-.5 1.3m-317 2c0 1.1.3 1.4.6.6.3-.7.2-1.6-.1-1.9-.3-.4-.6.2-.5 1.3m316 6c0 1.1.3 1.4.6.6.3-.7.2-1.6-.1-1.9-.3-.4-.6.2-.5 1.3m-43.2 2.1c-1.3 1.6-1.2 1.7.4.4s2.1-2.1 1.3-2.1c-.2 0-1 .8-1.7 1.7M126 206c-.9.6-1 1-.3 1 .6 0 1.5-.5 1.8-1 .8-1.2.4-1.2-1.5 0m-15.7 1.7c2.6.2 6.8.2 9.5 0 2.6-.2.4-.3-4.8-.3s-7.4.1-4.7.3m141.8 10.9c0 1.1.3 1.4.6.6.3-.7.2-1.6-.1-1.9-.3-.4-.6.2-.5 1.3m.9 2.8c0 .2.8 1 1.8 1.7 1.5 1.3 1.6 1.2.3-.4s-2.1-2.1-2.1-1.3m304.2 3.1c0 1.6.2 2.2.5 1.2.2-.9.2-2.3 0-3-.3-.6-.5.1-.5 1.8m81.7 5.2-2.4 2.8 2.8-2.4c1.5-1.4 2.7-2.6 2.7-2.8 0-.8-.8-.1-3.1 2.4m-171 1.6c.4.4 17.8.6 38.7.5l37.9-.3-38.7-.5c-21.3-.3-38.4-.2-37.9.3m-307.6 2.4c2.6.2 6.7.2 9 0s.2-.3-4.8-.3c-4.9 0-6.8.1-4.2.3m452 4c.9.2 2.3.2 3 0 .6-.3-.1-.5-1.8-.5-1.6 0-2.2.2-1.2.5m7.5 0c.6.2 1.8.2 2.5 0 .6-.3.1-.5-1.3-.5s-1.9.2-1.2.5m-75.4 11.8c0 6.6.1 9.2.3 5.7.2-3.4.2-8.8 0-12-.2-3.1-.3-.3-.3 6.3m158.7 3.1c0 1.1.3 1.4.6.6.3-.7.2-1.6-.1-1.9-.3-.4-.6.2-.5 1.3M571.5 255c1 1.1 2 2 2.3 2s-.3-.9-1.3-2-2-2-2.3-2 .3.9 1.3 2M227 256c-.9.6-1 1-.3 1 .6 0 1.5-.5 1.8-1 .8-1.2.4-1.2-1.5 0m-148 2c.6 1.1 1.3 2 1.6 2 .2 0 0-.9-.6-2s-1.3-2-1.6-2c-.2 0 0 .9.6 2m127.8-.3c.7.3 1.6.2 1.9-.1.4-.3-.2-.6-1.3-.5-1.1 0-1.4.3-.6.6m727.2 5.5c0 .5 7.5.7 16.8.6 16.9-.2 14.9-.6-5.6-1-6.1-.2-11.2 0-11.2.4m-280.2.5c3.4.2 8.8.2 12 0 3.1-.2.3-.3-6.3-.3s-9.2.1-5.7.3m145.5 0c4.8.2 12.5.2 17 0 4.5-.1.6-.3-8.8-.3-9.3 0-13 .2-8.2.3m86 0c4.8.2 12.5.2 17 0 4.5-.1.6-.3-8.8-.3-9.3 0-13 .2-8.2.3m-287.5 3c.6.2 1.8.2 2.5 0 .6-.3.1-.5-1.3-.5s-1.9.2-1.2.5m15 0c.6.2 1.8.2 2.5 0 .6-.3.1-.5-1.3-.5s-1.9.2-1.2.5M96 281.4c0 .2.8 1 1.8 1.7 1.5 1.3 1.6 1.2.3-.4s-2.1-2.1-2.1-1.3m10 10.1c1.3 1.4 2.6 2.5 2.8 2.5.3 0-.5-1.1-1.8-2.5s-2.6-2.5-2.8-2.5c-.3 0 .5 1.1 1.8 2.5m208.9 8.2c-1.3 1.6-1.2 1.7.4.4.9-.7 1.7-1.5 1.7-1.7 0-.8-.8-.3-2.1 1.3m-188.8 7.6c.2.1 1.3.9 2.4 1.7 1.9 1.4 1.9 1.4.6-.3-.7-.9-1.8-1.7-2.4-1.7q-.9 0-.6.3m7.9 5.1c0 .2.7.7 1.6 1 .8.3 1.2.2.9-.4-.6-1-2.5-1.4-2.5-.6m45.8 18.3c.7.3 1.6.2 1.9-.1.4-.3-.2-.6-1.3-.5-1.1 0-1.4.3-.6.6m5 1c.7.3 1.6.2 1.9-.1.4-.3-.2-.6-1.3-.5-1.1 0-1.4.3-.6.6m47 2c.7.3 1.6.2 1.9-.1.4-.3-.2-.6-1.3-.5-1.1 0-1.4.3-.6.6"/><path fill="#FFF" d="M202 15.1c-13.8 1.1-39 6.8-39 8.9 0 .3-1.1.7-2.4.8-2.5.2-22.2 9.2-26.5 12.1-1.4 1-4.6 3.1-7.1 4.7-5.9 3.7-19.7 14.8-23.5 18.8-23.4 24.8-37 50-43.5 80.6-2.8 13-3.8 41.1-2.1 54.2 2.3 17.1 12 48.6 14.4 47.1.6-.3.7-.1.3.5-.8 1.4 4 11.2 5.6 11.2.6 0 .9.3.5.6-1.2 1.2 11.8 20 20.5 29.5 7.1 7.8 19.2 17.9 26.8 22.4 1 .6 2.4 1.6 3.1 2.2 3.2 2.6 19.2 10.8 27.7 14.2 30 12.2 67.5 14.4 99.8 6 4.4-1.1 8.1-2.5 8.2-3 .2-.5.8-.6 1.3-.3 1.3.7 14.2-4.6 24.9-10.3 46.5-24.9 76.7-69 83.1-121.7 1.7-14 .1-48.5-2.1-47.1-.5.3-.6-.3-.3-1.3 1.4-5.7-13.1-46.3-16-44.5q-.9.45-.3-.6c.5-.7-1-4.3-3.5-8.4-12.5-21.2-30.1-39.1-52.2-53-10.6-6.8-32.9-16.5-42.7-18.7-1.9-.4-6.4-1.5-10-2.3-5.9-1.4-12-2.1-28-3.1-3-.2-10.7 0-17 .5m26.3 73.3 2.7 1.8v81.2c0 78.4-.1 81.2-2 83.6-1.8 2.4-2.3 2.5-13.5 2.5s-11.7-.1-13.5-2.5c-1.9-2.4-2-5.2-2-82.6 0-78.9 0-80.2 2-82.7 2.5-3.2 4.3-3.6 15-3.3 6.4.1 9.2.6 11.3 2m-52 26.7c1.2.7 2.5 1.7 2.9 2.3s.8 25.9.8 56.2v55.1l-2.6 2.4c-2.3 2.1-3.6 2.4-12 2.7-9.3.4-9.4.4-12.4-2.6l-3-3V118.9l2.6-2.4c2.5-2.3 3.5-2.5 12.1-2.5 5.2 0 10.4.5 11.6 1.1m103.2 14.5 2.5 1.6v44.9c0 53.8 1.5 48.9-14.5 48.9-9.9 0-10.7-.2-13.1-2.5l-2.5-2.5.3-44 .3-44.1 2.5-1.9c3.4-2.6 20.7-2.9 24.5-.4M128 142c1.8 2.3 2 4.5 2 31.5 0 36.4 1 34-15 34-11 0-11.2 0-13.6-2.8l-2.4-2.8v-57l3.1-3.2 3-3.2 10.5.5c9.7.5 10.7.7 12.4 3m202.5 8.6 2.5 2.7V176c0 28.5.6 27.3-13.5 27.8-17.7.7-17.5 1.1-17.5-28.2v-21.4l2.6-3.1c2.6-3.1 2.6-3.1 13-3.1 10.1 0 10.6.1 12.9 2.6M946 85.9c-1.4.5-4.4 1.8-6.7 3-3.9 1.9-4.8 3.1-4.4 5.4.1.5-.3.6-.8.3-1.6-1-3.4 5.3-2.9 10.8.3 3.4 1.2 6.3 2.6 8.1 1.2 1.5 2.2 2.5 2.2 2.2s1.2.5 2.6 1.8c7.8 7.2 26.2 3.7 30.8-6 2-4.1 2.1-11.7.2-15.3-1.7-3.2-5.5-6.9-7.6-7.4-.8-.2-2.1-.9-2.9-1.6-.7-.7-2-1.1-2.7-.8s-1.6.1-1.9-.4c-.7-1.2-4.9-1.2-8.5-.1M434 175v89h110v-32l-38.2-.2-38.3-.3-.3-72.8L467 86h-33zm335.5-41c-3.3.4-8.9 1.9-12.4 3.4-6 2.6-16.2 9.3-17.6 11.6-1.6 2.5-2.5.5-2.5-5.5V137h-33v127h33v-39.6c0-25.5.4-41.1 1.1-43.9.6-2.4 2.7-6.2 4.6-8.5 5.2-6 10.3-8.3 19.9-8.8 13.7-.7 22 3.4 26.4 13.1 1.8 3.9 2 7 2 45.4V263h33v-38.8c0-45.3.1-46.1 8-54.4 2.8-2.9 5-4.9 5-4.6 0 .4 1.6 0 3.5-.8 8.4-3.5 24.7-.7 30.2 5.2 6.2 6.7 6.3 6.9 6.3 52.1V263h33v-40.8c0-48-.6-54.5-5.5-64.7-5.3-11-12.7-17-27-22-9.3-3.2-37.1-1.8-34.9 1.7.5.7.3.8-.5.4-2.6-1.6-13.2 4.5-21.1 12.1-4.3 4.2-4.6 4.3-5.8 2.4-6.3-9.2-18.9-16.5-31.6-18.1-3.9-.5-7.3-.9-7.6-.8-.3 0-3.2.4-6.5.8m-212.1 4.4c-.3.8-.4 21.9-.1 46.8.4 49.4.4 49 6.5 59.6 4.6 8 13.6 15 24.2 18.9 10.3 3.8 24.9 3.9 36 .4 8-2.6 16-7.2 19.9-11.5 1.4-1.4 2.8-2.6 3.3-2.6.4 0 .8 2.9.8 6.5v6.5h9.8c5.3 0 12.7.3 16.5.6l6.7.7V137h-32.9l-.3 39.7c-.3 37.9-.4 40-2.4 44.3-4.8 10.3-12.9 15.7-25.1 16.7-10.2.8-17.5-1.5-23.3-7.5-2.6-2.7-5.1-6.4-5.8-8.8-.9-3-1.2-15.4-1.2-44.3V137h-16c-13.1 0-16.2.3-16.6 1.4m376.8 61.3.3 62.8 16.3.3 16.2.2V137h-33z"/><path fill-opacity=".7" d="M949.8 84.7c.7.3 1.6.2 1.9-.1.4-.3-.2-.6-1.3-.5-1.1 0-1.4.3-.6.6m-174 48c.6.2 1.8.2 2.5 0 .6-.3.1-.5-1.3-.5s-1.9.2-1.2.5M281.4 161c0 14.6.2 20.5.3 13.2.2-7.2.2-19.2 0-26.5-.1-7.2-.3-1.3-.3 13.3m277.9-24.3c.9.2 2.3.2 3 0 .6-.3-.1-.5-1.8-.5-1.6 0-2.2.2-1.2.5m23.5 0c1.2.2 3.2.2 4.5 0 1.2-.2.2-.4-2.3-.4s-3.5.2-2.2.4m-319.1 88c1.8.2 5 .2 7 0 2.1-.2.7-.4-3.2-.4-3.8 0-5.5.2-3.8.4"/><path fill="#FFF" fill-opacity=".1" d="m99.4 62.2-1.9 2.3 2.3-1.9c1.2-1.1 2.2-2.1 2.2-2.3 0-.8-.8-.2-2.6 1.9m337.4 22.5c.7.3 1.6.2 1.9-.1.4-.3-.2-.6-1.3-.5-1.1 0-1.4.3-.6.6m28 0c.7.3 1.6.2 1.9-.1.4-.3-.2-.6-1.3-.5-1.1 0-1.4.3-.6.6m3.5 5.8c0 3.3.2 4.5.4 2.7s.2-4.5 0-6-.4 0-.4 3.3m-.1 11c0 1.6.2 2.2.5 1.2.2-.9.2-2.3 0-3-.3-.6-.5.1-.5 1.8m461 2c0 1.6.2 2.2.5 1.2.2-.9.2-2.3 0-3-.3-.6-.5.1-.5 1.8m43 .5c0 1.9.2 2.7.5 1.7.2-.9.2-2.5 0-3.5-.3-.9-.5-.1-.5 1.8m-5.3 12.7c-1.3 1.6-1.2 1.7.4.4s2.1-2.1 1.3-2.1c-.2 0-1 .8-1.7 1.7m-498.4 59.8c0 28 .1 39.7.2 25.8.2-13.8.2-36.8 0-51-.1-14.2-.2-2.9-.2 25.2m122.8-36c0 2.2.2 3 .4 1.7.2-1.2.2-3 0-4-.3-.9-.5.1-.4 2.3m147 2.5c0 3.6.2 5 .4 3.2.2-1.7.2-4.7 0-6.5-.2-1.7-.4-.3-.4 3.3m230-1c0 3 .2 4.3.4 2.7.2-1.5.2-3.9 0-5.5-.2-1.5-.4-.2-.4 2.8M810 144.4c0 .2.8 1 1.8 1.7 1.5 1.3 1.6 1.2.3-.4s-2.1-2.1-2.1-1.3m12.9 1.3c-1.3 1.6-1.2 1.7.4.4s2.1-2.1 1.3-2.1c-.2 0-1 .8-1.7 1.7M303.2 158c0 1.9.2 2.7.5 1.7.2-.9.2-2.5 0-3.5-.3-.9-.5-.1-.5 1.8m71.9-.4c0 1.1.3 1.4.6.6.3-.7.2-1.6-.1-1.9-.3-.4-.6.2-.5 1.3M55.3 176c0 3.6.2 5 .4 3.2.2-1.7.2-4.7 0-6.5-.2-1.7-.4-.3-.4 3.3m854.8-1.4c0 1.1.3 1.4.6.6.3-.7.2-1.6-.1-1.9-.3-.4-.6.2-.5 1.3M825.2 186c0 1.4.2 1.9.5 1.2.2-.6.2-1.8 0-2.5-.3-.6-.5-.1-.5 1.3m-450.1 7.6c0 1.1.3 1.4.6.6.3-.7.2-1.6-.1-1.9-.3-.4-.6.2-.5 1.3m-46.2 7.1c-1.3 1.6-1.2 1.7.4.4s2.1-2.1 1.3-2.1c-.2 0-1 .8-1.7 1.7m-203 4c-1.3 1.6-1.2 1.7.4.4.9-.7 1.7-1.5 1.7-1.7 0-.8-.8-.3-2.1 1.3m699.4 11.8c0 2.2.2 3 .4 1.7.2-1.2.2-3 0-4-.3-.9-.5.1-.4 2.3m.1 26.5c0 11.3.2 15.9.3 10.2.2-5.6.2-14.8 0-20.5-.1-5.6-.3-1-.3 10.3m-269.3-17.4c0 1.1.3 1.4.6.6.3-.7.2-1.6-.1-1.9-.3-.4-.6.2-.5 1.3m-23.8 5.1c.9.2 2.5.2 3.5 0 .9-.3.1-.5-1.8-.5s-2.7.2-1.7.5m13.1 17.3c0 9.1.2 12.8.3 8.2.2-4.5.2-11.9 0-16.5-.1-4.5-.3-.8-.3 8.3m70.9-11.3c.9.2 2.5.2 3.5 0 .9-.3.1-.5-1.8-.5s-2.7.2-1.7.5M201.2 249c0 1.9.2 2.7.5 1.7.2-.9.2-2.5 0-3.5-.3-.9-.5-.1-.5 1.8m444.8 8.8.5 5.7.3-4.9c.2-2.7 0-5.2-.5-5.7-.4-.4-.6 1.8-.3 4.9m-444-4.4c0 .2.8 1 1.8 1.7 1.5 1.3 1.6 1.2.3-.4s-2.1-2.1-2.1-1.3m366 0c0 .2.8 1 1.8 1.7 1.5 1.3 1.6 1.2.3-.4s-2.1-2.1-2.1-1.3m-360.2 3.3c.7.3 1.6.2 1.9-.1.4-.3-.2-.6-1.3-.5-1.1 0-1.4.3-.6.6m581.4 3.3c0 1.9.2 2.7.5 1.7.2-.9.2-2.5 0-3.5-.3-.9-.5-.1-.5 1.8m-87.1 2.6c0 1.1.3 1.4.6.6.3-.7.2-1.6-.1-1.9-.3-.4-.6.2-.5 1.3m-236.8 3.1c12.5.2 32.9.2 45.5 0 12.5-.1 2.2-.2-22.8-.2s-35.3.1-22.7.2m250.5 0c2.3.2 5.9.2 8 0 2-.2.1-.4-4.3-.4s-6.1.2-3.7.4M91 277.4c0 .2.8 1 1.8 1.7 1.5 1.3 1.6 1.2.3-.4s-2.1-2.1-2.1-1.3m238 11.3-6.5 6.8 6.8-6.5c6.2-6 7.2-7 6.4-7-.1 0-3.2 3-6.7 6.7m-230-2.4c0 .2 1.5 1.6 3.3 3.3l3.2 2.9-2.9-3.3c-2.8-3-3.6-3.7-3.6-2.9m217.9 13.4c-1.3 1.6-1.2 1.7.4.4s2.1-2.1 1.3-2.1c-.2 0-1 .8-1.7 1.7m-122.1 35c.7.3 1.6.2 1.9-.1.4-.3-.2-.6-1.3-.5-1.1 0-1.4.3-.6.6m15 1c2.8.2 7.6.2 10.5 0 2.8-.2.5-.3-5.3-.3s-8.1.1-5.2.3"/><path fill="#FFF" fill-opacity=".5" d="M933.4 164.5c0 5.5.1 7.6.3 4.7s.2-7.4 0-10-.3-.2-.3 5.3m-23.1 30c0 4.4.2 6.1.4 3.7.2-2.3.2-5.9 0-8-.2-2-.4-.1-.4 4.3m23.1 24c0 17.6.2 24.7.3 15.7.2-9 .2-23.4 0-32-.1-8.6-.3-1.3-.3 16.3m-23.3-12.9c0 1.1.3 1.4.6.6.3-.7.2-1.6-.1-1.9-.3-.4-.6.2-.5 1.3m.3 28.4c0 14.6.2 20.5.3 13.2.2-7.2.2-19.2 0-26.5-.1-7.2-.3-1.3-.3 13.3m-354.2-19.5c0 1.6.2 2.2.5 1.2.2-.9.2-2.3 0-3-.3-.6-.5.1-.5 1.8m377 38.5c0 1.4.2 1.9.5 1.2.2-.6.2-1.8 0-2.5-.3-.6-.5-.1-.5 1.3m-263.4 11.7c1.7.2 4.7.2 6.5 0 1.7-.2.3-.4-3.3-.4s-5 .2-3.2.4"/><path fill="#FFF" fill-opacity=".4" d="M933.3 180.5c0 3.8.2 5.3.4 3.2.2-2 .2-5.2 0-7-.2-1.7-.4-.1-.4 3.8m-23 2c0 2.7.2 3.8.4 2.2.2-1.5.2-3.7 0-5-.2-1.2-.4 0-.4 2.8M876.5 226c0 20.1.1 28.3.2 18.3.2-10.1.2-26.5 0-36.5-.1-10.1-.2-1.9-.2 18.2m-320.4-7.4c0 1.1.3 1.4.6.6.3-.7.2-1.6-.1-1.9-.3-.4-.6.2-.5 1.3M933.2 258c0 1.9.2 2.7.5 1.7.2-.9.2-2.5 0-3.5-.3-.9-.5-.1-.5 1.8m-.2 4.9c0 .6.4 1.3 1 1.6s.7-.1.4-.9c-.7-1.8-1.4-2.1-1.4-.7m-278.7 1.8c2.6.2 6.7.2 9 0s.2-.3-4.8-.3c-4.9 0-6.8.1-4.2.3m148.4 0c1.8.2 5 .2 7 0 2.1-.2.7-.4-3.2-.4-3.8 0-5.5.2-3.8.4m87.6 0c.9.2 2.3.2 3 0 .6-.3-.1-.5-1.8-.5-1.6 0-2.2.2-1.2.5m53 0c2.6.2 6.7.2 9 0s.2-.3-4.8-.3c-4.9 0-6.8.1-4.2.3m14.5 0c.7.3 1.6.2 1.9-.1.4-.3-.2-.6-1.3-.5-1.1 0-1.4.3-.6.6"/><path fill="#FFF" fill-opacity=".3" d="M792.3 264.7c1.5.2 3.9.2 5.5 0 1.5-.2.2-.4-2.8-.4s-4.3.2-2.7.4m23 0c1.5.2 3.9.2 5.5 0 1.5-.2.2-.4-2.8-.4s-4.3.2-2.7.4m64.5 0c1.7.2 4.7.2 6.5 0 1.7-.2.3-.4-3.3-.4s-5 .2-3.2.4m18 0c2.3.2 6.1.2 8.5 0 2.3-.2.4-.4-4.3-.4s-6.6.2-4.2.4m38 0c.6.2 1.8.2 2.5 0 .6-.3.1-.5-1.3-.5s-1.9.2-1.2.5m27 0c.6.2 1.8.2 2.5 0 .6-.3.1-.5-1.3-.5s-1.9.2-1.2.5"/><path fill="#FFF" fill-opacity=".2" d="M212.7 87.7c1.8.2 5 .2 7 0 2.1-.2.7-.4-3.2-.4-3.8 0-5.5.2-3.8.4m-48.4 145c1.5.2 3.7.2 5 0 1.2-.2 0-.4-2.8-.4-2.7 0-3.8.2-2.2.4m478.1 22.5-1.9 2.3 2.3-1.9c1.2-1.1 2.2-2.1 2.2-2.3 0-.8-.8-.2-2.6 1.9"/><path fill-opacity=".8" d="M567.3 136.7c2.6.2 6.8.2 9.5 0 2.6-.2.4-.3-4.8-.3s-7.4.1-4.7.3m91 0c3.7.2 9.6.2 13 0s.4-.3-6.8-.3c-7.1 0-9.9.1-6.2.3"/></svg>