<?xml version="1.0" encoding="UTF-8"?>
<!DOCTYPE svg PUBLIC "-//W3C//DTD SVG 1.1//EN" "http://www.w3.org/Graphics/SVG/1.1/DTD/svg11.dtd">
<svg xmlns="http://www.w3.org/2000/svg" version="1.1" width="426px" height="346px" style="shape-rendering:geometricPrecision; text-rendering:geometricPrecision; image-rendering:optimizeQuality; fill-rule:evenodd; clip-rule:evenodd" xmlns:xlink="http://www.w3.org/1999/xlink">
<g><path style="opacity:0.642" fill="#2b2b2a" d="M 266.5,20.5 C 266.44,21.0431 266.107,21.3764 265.5,21.5C 231.176,10.8524 196.843,10.8524 162.5,21.5C 162.5,21.1667 162.5,20.8333 162.5,20.5C 197.198,8.53566 231.864,8.53566 266.5,20.5 Z"/></g>
<g><path style="opacity:0.975" fill="#fdfdfd" d="M 266.5,20.5 C 270.797,21.6546 274.797,23.3213 278.5,25.5C 280.004,26.7331 282.17,28.0665 285,29.5C 285.399,29.2716 285.565,28.9382 285.5,28.5C 287.75,29.1302 289.75,30.1302 291.5,31.5C 291.062,31.4346 290.728,31.6012 290.5,32C 291.416,32.3742 292.25,32.8742 293,33.5C 293.399,33.2716 293.565,32.9382 293.5,32.5C 297.457,34.4726 301.124,36.8059 304.5,39.5C 304.909,40.8392 306.243,41.8392 308.5,42.5C 325.154,54.1554 339.154,68.4888 350.5,85.5C 349.285,86.779 349.618,87.779 351.5,88.5C 375.39,127.178 382.224,168.845 372,213.5C 359.424,260.08 331.924,294.913 289.5,318C 250.4,337.185 210.067,340.685 168.5,328.5C 167.005,326.655 165.338,326.322 163.5,327.5C 118.755,311.593 86.5887,281.926 67,238.5C 51.28,197.795 50.4466,156.795 64.5,115.5C 66.4241,115.289 66.7574,114.623 65.5,113.5C 69.0023,103.294 74.0023,93.9603 80.5,85.5C 81.9063,85.0269 82.573,84.0269 82.5,82.5C 84.1054,81.9941 84.4387,81.3274 83.5,80.5C 84.7997,77.5677 86.7997,75.2344 89.5,73.5C 91.1054,72.9941 91.4387,72.3274 90.5,71.5C 90.8333,70.5 91.5,69.8333 92.5,69.5C 94.3497,68.7582 95.0164,67.7582 94.5,66.5C 98.1667,62.1667 102.167,58.1667 106.5,54.5C 107.758,55.0164 108.758,54.3497 109.5,52.5C 111.895,49.1385 114.895,46.4719 118.5,44.5C 119.327,45.4387 119.994,45.1054 120.5,43.5C 120.833,42.5 121.5,41.8333 122.5,41.5C 123.327,42.4387 123.994,42.1054 124.5,40.5C 124.5,39.8333 124.833,39.5 125.5,39.5C 126.327,40.4387 126.994,40.1054 127.5,38.5C 127.5,37.8333 127.833,37.5 128.5,37.5C 129.327,38.4387 129.994,38.1054 130.5,36.5C 130.973,35.0937 131.973,34.427 133.5,34.5C 134.327,35.4387 134.994,35.1054 135.5,33.5C 136.899,32.1103 138.566,31.1103 140.5,30.5C 140.435,30.9382 140.601,31.2716 141,31.5C 141.995,30.9341 142.828,30.2674 143.5,29.5C 144.29,28.5987 145.29,27.9321 146.5,27.5C 146.435,27.9382 146.601,28.2716 147,28.5C 152.209,26.0507 157.376,23.7173 162.5,21.5C 196.843,10.8524 231.176,10.8524 265.5,21.5C 266.107,21.3764 266.44,21.0431 266.5,20.5 Z M 207.5,87.5 C 212.511,87.3341 217.511,87.5007 222.5,88C 224.676,88.1629 226.509,88.9963 228,90.5C 228.667,144.5 228.667,198.5 228,252.5C 227.097,253.701 225.931,254.535 224.5,255C 218.167,255.667 211.833,255.667 205.5,255C 203.667,254.5 202.5,253.333 202,251.5C 201.333,198.167 201.333,144.833 202,91.5C 202.374,90.5838 202.874,89.7504 203.5,89C 205.058,88.79 206.391,88.29 207.5,87.5 Z M 154.5,115.5 C 161.508,115.334 168.508,115.5 175.5,116C 176.126,116.75 176.626,117.584 177,118.5C 177.667,155.167 177.667,191.833 177,228.5C 175.352,229.717 173.519,230.55 171.5,231C 166.5,231.667 161.5,231.667 156.5,231C 154.508,230.426 153.008,229.259 152,227.5C 151.333,191.167 151.333,154.833 152,118.5C 153.045,117.627 153.878,116.627 154.5,115.5 Z M 279.5,135.5 C 279.5,155.833 279.5,176.167 279.5,196.5C 279.5,203.5 279.5,210.5 279.5,217.5C 279.5,217.833 279.5,218.167 279.5,218.5C 278.871,220.997 277.204,222.33 274.5,222.5C 269.833,222.5 265.167,222.5 260.5,222.5C 257.192,223.026 255.026,221.693 254,218.5C 253.333,190.167 253.333,161.833 254,133.5C 254.465,132.069 255.299,130.903 256.5,130C 263.5,129.333 270.5,129.333 277.5,130C 279.155,131.444 279.822,133.278 279.5,135.5 Z M 105.5,140.5 C 111.176,140.334 116.843,140.501 122.5,141C 124.329,141.273 125.829,142.107 127,143.5C 127.667,163.167 127.667,182.833 127,202.5C 126.097,203.701 124.931,204.535 123.5,205C 117.167,205.667 110.833,205.667 104.5,205C 102.667,204.5 101.5,203.333 101,201.5C 100.333,182.5 100.333,163.5 101,144.5C 102.25,142.807 103.75,141.473 105.5,140.5 Z M 307.5,149.5 C 313.842,149.334 320.175,149.5 326.5,150C 327.931,150.465 329.097,151.299 330,152.5C 330.667,167.833 330.667,183.167 330,198.5C 329.097,199.701 327.931,200.535 326.5,201C 319.833,201.667 313.167,201.667 306.5,201C 305.299,200.097 304.465,198.931 304,197.5C 303.333,182.833 303.333,168.167 304,153.5C 304.69,151.65 305.856,150.316 307.5,149.5 Z"/></g>
<g><path style="opacity:0.608" fill="#3d3c3c" d="M 162.5,20.5 C 162.5,20.8333 162.5,21.1667 162.5,21.5C 157.376,23.7173 152.209,26.0507 147,28.5C 146.601,28.2716 146.435,27.9382 146.5,27.5C 151.591,24.7961 156.924,22.4627 162.5,20.5 Z"/></g>
<g><path style="opacity:0.11" fill="#424241" d="M 278.5,25.5 C 281.241,25.7073 283.574,26.7073 285.5,28.5C 285.565,28.9382 285.399,29.2716 285,29.5C 282.17,28.0665 280.004,26.7331 278.5,25.5 Z"/></g>
<g><path style="opacity:0.306" fill="#434443" d="M 143.5,29.5 C 142.828,30.2674 141.995,30.9341 141,31.5C 140.601,31.2716 140.435,30.9382 140.5,30.5C 141.209,29.596 142.209,29.2627 143.5,29.5 Z"/></g>
<g><path style="opacity:0.267" fill="#3e3e3e" d="M 291.5,31.5 C 292.492,31.3284 293.158,31.6618 293.5,32.5C 293.565,32.9382 293.399,33.2716 293,33.5C 292.25,32.8742 291.416,32.3742 290.5,32C 290.728,31.6012 291.062,31.4346 291.5,31.5 Z"/></g>
<g><path style="opacity:0.365" fill="#424142" d="M 135.5,33.5 C 134.994,35.1054 134.327,35.4387 133.5,34.5C 133.842,33.6618 134.508,33.3284 135.5,33.5 Z"/></g>
<g><path style="opacity:0.353" fill="#424240" d="M 130.5,36.5 C 129.994,38.1054 129.327,38.4387 128.5,37.5C 128.842,36.6618 129.508,36.3284 130.5,36.5 Z"/></g>
<g><path style="opacity:0.4" fill="#444444" d="M 127.5,38.5 C 126.994,40.1054 126.327,40.4387 125.5,39.5C 125.842,38.6618 126.508,38.3284 127.5,38.5 Z"/></g>
<g><path style="opacity:0.2" fill="#424242" d="M 124.5,40.5 C 123.994,42.1054 123.327,42.4387 122.5,41.5C 122.842,40.6618 123.508,40.3284 124.5,40.5 Z"/></g>
<g><path style="opacity:0.247" fill="#474847" d="M 304.5,39.5 C 306.404,39.7376 307.738,40.7376 308.5,42.5C 306.243,41.8392 304.909,40.8392 304.5,39.5 Z"/></g>
<g><path style="opacity:0.235" fill="#404240" d="M 120.5,43.5 C 119.994,45.1054 119.327,45.4387 118.5,44.5C 118.842,43.6618 119.508,43.3284 120.5,43.5 Z"/></g>
<g><path style="opacity:0.42" fill="#545453" d="M 109.5,52.5 C 108.758,54.3497 107.758,55.0164 106.5,54.5C 106.973,53.0937 107.973,52.427 109.5,52.5 Z"/></g>
<g><path style="opacity:0.231" fill="#545454" d="M 94.5,66.5 C 95.0164,67.7582 94.3497,68.7582 92.5,69.5C 92.427,67.9731 93.0937,66.9731 94.5,66.5 Z"/></g>
<g><path style="opacity:0.298" fill="#40423f" d="M 90.5,71.5 C 91.4387,72.3274 91.1054,72.9941 89.5,73.5C 89.3284,72.5084 89.6618,71.8417 90.5,71.5 Z"/></g>
<g><path style="opacity:0.322" fill="#414141" d="M 83.5,80.5 C 84.4387,81.3274 84.1054,81.9941 82.5,82.5C 82.3284,81.5084 82.6618,80.8417 83.5,80.5 Z"/></g>
<g><path style="opacity:0.4" fill="#373736" d="M 82.5,82.5 C 82.573,84.0269 81.9063,85.0269 80.5,85.5C 80.427,83.9731 81.0937,82.9731 82.5,82.5 Z"/></g>
<g><path style="opacity:0.569" fill="#373535" d="M 350.5,85.5 C 351.11,86.391 351.443,87.391 351.5,88.5C 349.618,87.779 349.285,86.779 350.5,85.5 Z"/></g>
<g><path style="opacity:0.569" fill="#0f100e" d="M 65.5,113.5 C 66.7574,114.623 66.4241,115.289 64.5,115.5C 64.8333,114.833 65.1667,114.167 65.5,113.5 Z"/></g>
<g><path style="opacity:0.039" fill="#161617" d="M 279.5,196.5 C 279.5,176.167 279.5,155.833 279.5,135.5C 280.117,135.389 280.617,135.056 281,134.5C 281.667,159.833 281.667,185.167 281,210.5C 280.826,205.649 280.326,200.982 279.5,196.5 Z"/></g>
<g><path style="opacity:0.647" fill="#161416" d="M 279.5,218.5 C 279.5,218.167 279.5,217.833 279.5,217.5C 280.363,216.537 281.03,216.537 281.5,217.5C 281.043,218.298 280.376,218.631 279.5,218.5 Z"/></g>
<g><path style="opacity:0.066" fill="#111011" d="M 260.5,222.5 C 265.167,222.5 269.833,222.5 274.5,222.5C 272.429,223.809 269.929,224.475 267,224.5C 264.5,224.333 262,224.167 259.5,224C 260.056,223.617 260.389,223.117 260.5,222.5 Z"/></g>
<g><path style="opacity:0.227" fill="#2d2c2d" d="M 163.5,327.5 C 165.338,326.322 167.005,326.655 168.5,328.5C 166.784,328.371 165.117,328.038 163.5,327.5 Z"/></g>
</svg>
